{"title":"Resident Evil Afterlife (2010) 1080p BluRay {DD 5.1 Triple Audio","uid":9832006,"size":2194397497,"categoryP":"video","categoryS":"hd___movies","magnet":"?xt=urn:btih:7c14aea2fef460354e566d48a177b80ee2e0883e&amp;dn=Resident+Evil+Afterlife+%282010%29+1080p+BluRay+%7BDD+5.1+Triple+Audio&amp;tr=udp%3A%2F%2Ftracker.openbittorrent.com%3A80&amp;tr=udp%3A%2F%2Fopen.demonii.com%3A1337&amp;tr=udp%3A%2F%2Ftracker.coppersurfer.tk%3A6969&amp;tr=udp%3A%2F%2Fexodus.desync.com%3A6969","seeders":1,"leechers":1,"uploader":"SaNRiM","files":-1,"time":1395856346,"description":"Storyline\nIn a world ravaged by a virus infection, turning its victims into the Undead, Alice (Jovovich), continues on her journey to find survivors and lead them to safety. Her deadly battle with the Umbrella Corporation reaches new heights, but Alice gets some unexpected help from an old friend. A new lead that promises a safe haven from the Undead takes them to Los Angeles, but when they arrive the city is overrun by thousands of Undead - and Alice and her comrades are about to step into a deadly trap.\n\n\nTorrent Info\n\nGeneral\n\nUnique ID : 173443933519458948323333085555674024436 (0x827C16266B88A97C9E861C6A8F6F89F4)\nComplete name : Resident Evil Afterlife (2010) 1080p BluRay ~SaNRiM~.mkv\nFormat : Matroska\nFormat version : Version 4 / Version 2\nFile size : 2.04 GiB\nDuration : 1h 36mn\nOverall bit rate : 3 007 Kbps\nEncoded date : UTC 2014-03-26 15:57:28\nWriting library : libebml v1.3.0 + libmatroska v1.4.1\n\n\nVideo\n\nID : 1\nFormat : AVC\nFormat/Info : Advanced Video Codec\nFormat profile : &lt;a class=&quot;__cf_email__&quot; href=&quot;/cdn-cgi/l/email-protection&quot; data-cfemail=&quot;df97b6b8b79f93ebf1ef&quot;&gt;[email&amp;#160;protected]&lt;/a&gt;&lt;script cf-hash='f9e31' type=&quot;text/javascript&quot;&gt;\n/* &lt;![CDATA[ */!function(){try{var t=&quot;currentScript&quot;in document?document.currentScript:function(){for(var t=document.getElementsByTagName(&quot;script&quot;),e=t.length;e--;)if(t[e].getAttribute(&quot;cf-hash&quot;))return t[e]}();if(t&amp;&amp;t.previousSibling){var e,r,n,i,c=t.previousSibling,a=c.getAttribute(&quot;data-cfemail&quot;);if(a){for(e=&quot;&quot;,r=parseInt(a.substr(0,2),16),n=2;a.length-n;n+=2)i=parseInt(a.substr(n,2),16)^r,e+=String.fromCharCode(i);e=document.createTextNode(e),c.parentNode.replaceChild(e,c)}}}catch(u){}}();/* ]]&gt; */&lt;/script&gt;\nFormat settings, CABAC : Yes\nFormat settings, ReFrames : 4 frames\nCodec ID : V_MPEG4/ISO/AVC\nDuration : 1h 36mn\nBit rate : 1 663 Kbps\nWidth : 1 920 pixels\nHeight : 800 pixels\nDisplay aspect ratio : 2.40:1\nFrame rate mode : Constant\nFrame rate : 23.976 fps\nColor space : YUV\nChroma subsampling : 4:2:0\nBit depth : 8 bits\nScan type : Progressive\nBits/(Pixel*Frame) : 0.045\nStream size : 1.09 GiB (53%)\nTitle : ~SaNRiM~\nWriting library : x264 core 129 r2230 1cffe9f\nLanguage : English\nDefault : Yes\nForced : No\n\n\nAudio #1\n\nID : 2\nFormat : AC-3\nFormat/Info : Audio Coding 3\nMode extension : CM (complete main)\nFormat settings, Endianness : Big\nCodec ID : A_AC3\nDuration : 1h 36mn\nBit rate mode : Constant\nBit rate : 448 Kbps\nChannel(s) : 6 channels\nChannel positions : Front: L C R, Side: L R, LFE\nSampling rate : 48.0 KHz\nBit depth : 16 bits\nCompression mode : Lossy\nStream size : 310 MiB (15%)\nTitle : ~SaNRiM~\nLanguage : Hindi\nDefault : Yes\nForced : No\n\n\nAudio #2\n\nID : 3\nFormat : AC-3\nFormat/Info : Audio Coding 3\nMode extension : CM (complete main)\nFormat settings, Endianness : Big\nCodec ID : A_AC3\nDuration : 1h 36mn\nBit rate mode : Constant\nBit rate : 448 Kbps\nChannel(s) : 6 channels\nChannel positions : Front: L C R, Side: L R, LFE\nSampling rate : 48.0 KHz\nBit depth : 16 bits\nCompression mode : Lossy\nStream size : 310 MiB (15%)\nTitle : ~SaNRiM~\nLanguage : Tamil\nDefault : No\nForced : No\n\n\nAudio #3\n\nID : 4\nFormat : AC-3\nFormat/Info : Audio Coding 3\nMode extension : CM (complete main)\nFormat settings, Endianness : Big\nCodec ID : A_AC3\nDuration : 1h 36mn\nBit rate mode : Constant\nBit rate : 448 Kbps\nChannel(s) : 6 channels\nChannel positions : Front: L C R, Side: L R, LFE\nSampling rate : 48.0 KHz\nBit depth : 16 bits\nCompression mode : Lossy\nStream size : 310 MiB (15%)\nTitle : ~SaNRiM~\nLanguage : English\nDefault : No\nForced : No\n\n\n\nScreens\n &lt;a href=&quot;\nhttp://someimage.com/OL6ug6l&quot; rel=&quot;nofollow&quot; target=&quot;_NEW&quot;&gt;\nhttp://someimage.com/OL6ug6l&lt;/a&gt; &lt;a href=&quot;\nhttp://someimage.com/6nPWZ3Y&quot; rel=&quot;nofollow&quot; target=&quot;_NEW&quot;&gt;\nhttp://someimage.com/6nPWZ3Y&lt;/a&gt; &lt;a href=&quot;\nhttp://someimage.com/7vTvnw4&quot; rel=&quot;nofollow&quot; target=&quot;_NEW&quot;&gt;\nhttp://someimage.com/7vTvnw4&lt;/a&gt; &lt;a href=&quot;\nhttp://someimage.com/Tc0cBf3&quot; rel=&quot;nofollow&quot; target=&quot;_NEW&quot;&gt;\nhttp://someimage.com/Tc0cBf3&lt;/a&gt; &lt;a href=&quot;\nhttp://someimage.com/YUthoJG&quot; rel=&quot;nofollow&quot; target=&quot;_NEW&quot;&gt;\nhttp://someimage.com/YUthoJG&lt;/a&gt; &lt;a href=&quot;\nhttp://someimage.com/7qTU40J&quot; rel=&quot;nofollow&quot; target=&quot;_NEW&quot;&gt;\nhttp://someimage.com/7qTU40J&lt;/a&gt; &lt;a href=&quot;\nhttp://someimage.com/fh7A4D6&quot; rel=&quot;nofollow&quot; target=&quot;_NEW&quot;&gt;\nhttp://someimage.com/fh7A4D6&lt;/a&gt; &lt;a href=&quot;\nhttp://someimage.com/gyHMemL&quot; rel=&quot;nofollow&quot; target=&quot;_NEW&quot;&gt;\nhttp://someimage.com/gyHMemL&lt;/a&gt; &lt;a href=&quot;\nhttp://someimage.com/zJCyjWr&quot; rel=&quot;nofollow&quot; target=&quot;_NEW&quot;&gt;\nhttp://someimage.com/zJCyjWr&lt;/a&gt; &lt;a href=&quot;\nhttp://someimage.com/idvPvuc&quot; rel=&quot;nofollow&quot; target=&quot;_NEW&quot;&gt;\nhttp://someimage.com/idvPvuc&lt;/a&gt; &lt;a href=&quot;\nhttp://someimage.com/Mq0GVgK&quot; rel=&quot;nofollow&quot; target=&quot;_NEW&quot;&gt;\nhttp://someimage.com/Mq0GVgK&lt;/a&gt; &lt;a href=&quot;\nhttp://someimage.com/SNi5Nln&quot; rel=&quot;nofollow&quot; target=&quot;_NEW&quot;&gt;\nhttp://someimage.com/SNi5Nln&lt;/a&gt; &lt;a href=&quot;\nhttp://someimage.com/tPCqyJE&quot; rel=&quot;nofollow&quot; target=&quot;_NEW&quot;&gt;\nhttp://someimage.com/tPCqyJE&lt;/a&gt; &lt;a href=&quot;\nhttp://someimage.com/rdKRWJ6&quot; rel=&quot;nofollow&quot; target=&quot;_NEW&quot;&gt;\nhttp://someimage.com/rdKRWJ6&lt;/a&gt; &lt;a href=&quot;\nhttp://someimage.com/mbIUOgK&quot; rel=&quot;nofollow&quot; target=&quot;_NEW&quot;&gt;\nhttp://someimage.com/mbIUOgK&lt;/a&gt; &lt;a href=&quot;\nhttp://someimage.com/Wzp6r08&quot; rel=&quot;nofollow&quot; target=&quot;_NEW&quot;&gt;\nhttp://someimage.com/Wzp6r08&lt;/a&gt; &lt;a href=&quot;\nhttp://someimage.com/4K4706e&quot; rel=&quot;nofollow&quot; target=&quot;_NEW&quot;&gt;\nhttp://someimage.com/4K4706e&lt;/a&gt; &lt;a href=&quot;\nhttp://someimage.com/1eVVKoz&quot; rel=&quot;nofollow&quot; target=&quot;_NEW&quot;&gt;\nhttp://someimage.com/1eVVKoz&lt;/a&gt; &lt;a href=&quot;\nhttp://someimage.com/dotMKR0&quot; rel=&quot;nofollow&quot; target=&quot;_NEW&quot;&gt;\nhttp://someimage.com/dotMKR0&lt;/a&gt; &lt;a href=&quot;\nhttp://someimage.com/89pdZAx&quot; rel=&quot;nofollow&quot; target=&quot;_NEW&quot;&gt;\nhttp://someimage.com/89pdZAx&lt;/a&gt; &lt;a href=&quot;\nhttp://someimage.com/28xcIT0&quot; rel=&quot;nofollow&quot; target=&quot;_NEW&quot;&gt;\nhttp://someimage.com/28xcIT0&lt;/a&gt; &lt;a href=&quot;\nhttp://someimage.com/VsOLQj7&quot; rel=&quot;nofollow&quot; target=&quot;_NEW&quot;&gt;\nhttp://someimage.com/VsOLQj7&lt;/a&gt; &lt;a href=&quot;\nhttp://someimage.com/ut5glEo&quot; rel=&quot;nofollow&quot; target=&quot;_NEW&quot;&gt;\nhttp://someimage.com/ut5glEo&lt;/a&gt;\n\n\n\n                   A BIG THANKS TO MOHSIN PATHAN FOR AUDIO\n\n\n\n                  If you like my work please comment\n                          Any request? Just PM me\n                       Please seed long after download\n                         Thank you &amp; enjoy the best\n                                 ~SaNRiM~\t","torrent":{"xt":"urn:btih:7c14aea2fef460354e566d48a177b80ee2e0883e","amp;dn":"Resident+Evil+Afterlife+%282010%29+1080p+BluRay+%7BDD+5.1+Triple+Audio","amp;tr":["udp%3A%2F%2Ftracker.openbittorrent.com%3A80","udp%3A%2F%2Fopen.demonii.com%3A1337","udp%3A%2F%2Ftracker.coppersurfer.tk%3A6969","udp%3A%2F%2Fexodus.desync.com%3A6969"],"infoHash":"7c14aea2fef460354e566d48a177b80ee2e0883e","infoHashBuffer":{"type":"Buffer","data":[124,20,174,162,254,244,96,53,78,86,109,72,161,119,184,14,226,224,136,62]},"announce":[],"urlList":[]}}